<?xml version="1.0" encoding="utf-8"?>
<!-- Generator: Adobe Illustrator 25.2.0, SVG Export Plug-In . SVG Version: 6.00 Build 0)  -->
<svg version="1.1" id="Calque_1" xmlns="http://www.w3.org/2000/svg" xmlns:xlink="http://www.w3.org/1999/xlink" x="0px" y="0px"
	 viewBox="0 0 1200 800" style="enable-background:new 0 0 1200 800;" xml:space="preserve">
<style type="text/css">
	.st0{fill:#CCCCCC;}
	.st1{fill:#FFFFFF;}
</style>
<rect class="st0" width="1200" height="800"/>
<g>
	<path class="st1" d="M450.4,327.1c0-28.3,23-51.3,51.3-51.3s51.3,22.9,51.3,51.3c0,28.4-22.9,51.3-51.3,51.3
		C473.3,378.4,450.4,355.4,450.4,327.1z"/>
	<path class="st1" d="M820.8,174.3H379.2c-16.1,0-29.3,13.1-29.3,29.3v392.8c0,16.1,13.1,29.3,29.3,29.3h441.5
		c16.1,0,29.3-13.1,29.3-29.3V203.6C850,187.5,836.9,174.3,820.8,174.3z M801.3,478.8L667.7,344.6c-0.9-1-6.9-8.1-17.1-8.3
		c-10.6-0.2-17.1,7.2-17.9,8.1L398.7,578.1v-353h402.7L801.3,478.8L801.3,478.8z"/>
</g>
</svg>
