<?xml version="1.0" encoding="utf-8"?>
<!-- Generator: Adobe Illustrator 25.2.0, SVG Export Plug-In . SVG Version: 6.00 Build 0)  -->
<svg version="1.1" id="Calque_1" xmlns="http://www.w3.org/2000/svg" xmlns:xlink="http://www.w3.org/1999/xlink" x="0px" y="0px"
	 viewBox="0 0 333 197" style="enable-background:new 0 0 333 197;" xml:space="preserve">
<style type="text/css">
	.st0{fill:#FFFFFF;}
</style>
<g>
	<g id="Logo_1_">
		<g>
			<g>
				<g>
					<path class="st0" d="M52.1,192.4v-18.6h7.6c1.6,0,3.1,0.3,4.2,0.8c1.2,0.5,2.1,1.3,2.7,2.3s1,2.2,1,3.6s-0.3,2.5-1,3.5
						c-0.6,1-1.5,1.7-2.7,2.3c-1.2,0.5-2.6,0.8-4.2,0.8H54l1.5-1.6v6.9L52.1,192.4L52.1,192.4z M55.5,185.8l-1.5-1.7h5.5
						c1.5,0,2.7-0.3,3.4-1c0.8-0.6,1.2-1.6,1.2-2.7s-0.4-2.1-1.2-2.7c-0.8-0.6-1.9-1-3.4-1H54l1.5-1.7V185.8z"/>
					<path class="st0" d="M71.3,175.9c-0.6,0-1.1-0.2-1.5-0.6s-0.6-0.9-0.6-1.4s0.2-1,0.6-1.4s0.9-0.6,1.5-0.6s1.1,0.2,1.5,0.5
						s0.6,0.8,0.6,1.4s-0.2,1-0.6,1.4S72,175.9,71.3,175.9z M69.7,192.4v-14.2H73v14.2H69.7z"/>
					<path class="st0" d="M74.8,192.4v-2.1l8.7-10.5l0.6,1.1h-9.2v-2.7h11.8v2.1L78,190.8l-0.7-1.1h9.6v2.7H74.8z"/>
					<path class="st0" d="M87.6,192.4v-2.1l8.7-10.5l0.6,1.1h-9.2v-2.7h11.8v2.1l-8.7,10.5l-0.6-1.1h9.6v2.7H87.6z"/>
					<path class="st0" d="M108.2,192.6c-1.6,0-2.9-0.3-4.1-0.9c-1.2-0.6-2.1-1.5-2.7-2.6c-0.6-1.1-1-2.3-1-3.8
						c0-1.4,0.3-2.7,0.9-3.8c0.6-1.1,1.5-1.9,2.6-2.6c1.1-0.6,2.4-0.9,3.8-0.9c1.4,0,2.6,0.3,3.7,0.9c1.1,0.6,1.9,1.5,2.5,2.6
						s0.9,2.4,0.9,3.9c0,0.1,0,0.3,0,0.5s0,0.3,0,0.5H103v-2.2h10l-1.3,0.7c0-0.8-0.1-1.5-0.5-2.1s-0.8-1.1-1.4-1.5
						s-1.3-0.5-2.1-0.5s-1.5,0.2-2.1,0.5s-1.1,0.8-1.4,1.5c-0.3,0.6-0.5,1.4-0.5,2.2v0.5c0,0.8,0.2,1.6,0.6,2.3
						c0.4,0.7,0.9,1.2,1.6,1.5c0.7,0.4,1.5,0.5,2.5,0.5c0.8,0,1.5-0.1,2.1-0.4s1.2-0.7,1.7-1.2l1.8,2.1c-0.7,0.7-1.5,1.3-2.4,1.7
						C110.5,192.4,109.4,192.6,108.2,192.6z"/>
					<path class="st0" d="M116.7,192.4v-14.2h3.2v3.9l-0.4-1.1c0.4-1,1.1-1.7,2-2.2s2-0.8,3.4-0.8v3.2c-0.1,0-0.2,0-0.4,0
						c-0.1,0-0.2,0-0.3,0c-1.3,0-2.3,0.4-3,1.1s-1.1,1.8-1.1,3.3v6.8L116.7,192.4L116.7,192.4z"/>
					<path class="st0" d="M128.2,175.9c-0.6,0-1.1-0.2-1.5-0.6s-0.6-0.9-0.6-1.4s0.2-1,0.6-1.4s0.9-0.6,1.5-0.6
						c0.6,0,1.1,0.2,1.5,0.5s0.6,0.8,0.6,1.4s-0.2,1-0.6,1.4C129.3,175.6,128.8,175.9,128.2,175.9z M126.6,192.4v-14.2h3.3v14.2
						H126.6z"/>
					<path class="st0" d="M137.1,192.6c-1.1,0-2-0.2-2.8-0.5c-0.8-0.4-1.4-0.9-1.8-1.5c-0.4-0.6-0.6-1.4-0.6-2.2
						c0-0.8,0.2-1.5,0.6-2.1s1-1.1,1.9-1.5s2-0.6,3.4-0.6h4.1v2.2H138c-1.1,0-1.9,0.2-2.3,0.5c-0.4,0.4-0.6,0.8-0.6,1.4
						s0.2,1.1,0.7,1.4c0.5,0.4,1.1,0.5,2,0.5c0.8,0,1.5-0.2,2.2-0.6c0.6-0.4,1.1-0.9,1.4-1.6l0.5,2c-0.3,0.8-0.9,1.5-1.7,1.9
						C139.4,192.3,138.4,192.6,137.1,192.6z M141.6,192.4v-2.9l-0.2-0.6v-5c0-1-0.3-1.7-0.9-2.3c-0.6-0.6-1.5-0.8-2.7-0.8
						c-0.8,0-1.5,0.1-2.3,0.4c-0.8,0.2-1.4,0.6-2,1l-1.3-2.4c0.8-0.6,1.7-1,2.7-1.3s2.1-0.5,3.3-0.5c2.1,0,3.7,0.5,4.8,1.5
						s1.7,2.5,1.7,4.6v8.3L141.6,192.4L141.6,192.4z"/>
					<path class="st0" d="M152.9,186.4v-2.8h7.3v2.8H152.9z"/>
					<path class="st0" d="M168.8,192.4v-18.6h3.4v18.6H168.8z"/>
					<path class="st0" d="M182.1,192.6c-1.5,0-2.8-0.3-4-0.9c-1.2-0.6-2.1-1.5-2.7-2.6c-0.7-1.1-1-2.3-1-3.8c0-1.4,0.3-2.7,1-3.8
						c0.7-1.1,1.6-1.9,2.7-2.6c1.2-0.6,2.5-0.9,4-0.9c1.4,0,2.6,0.3,3.6,0.8s1.9,1.4,2.4,2.5l-2.5,1.5c-0.4-0.7-0.9-1.1-1.6-1.5
						c-0.6-0.3-1.3-0.5-2-0.5c-0.8,0-1.5,0.2-2.2,0.5c-0.7,0.4-1.2,0.9-1.5,1.5c-0.4,0.7-0.6,1.4-0.6,2.3s0.2,1.7,0.6,2.4
						c0.4,0.7,0.9,1.2,1.5,1.5c0.7,0.4,1.4,0.5,2.2,0.5c0.7,0,1.4-0.2,2-0.5s1.1-0.8,1.6-1.5l2.5,1.5c-0.5,1.1-1.3,1.9-2.4,2.5
						C184.6,192.1,183.5,192.6,182.1,192.6z"/>
					<path class="st0" d="M196.3,192.6c-1.6,0-2.9-0.3-4.1-0.9c-1.2-0.6-2.1-1.5-2.7-2.6c-0.6-1.1-1-2.3-1-3.8
						c0-1.4,0.3-2.7,0.9-3.8c0.6-1.1,1.5-1.9,2.6-2.6c1.1-0.6,2.4-0.9,3.8-0.9s2.6,0.3,3.7,0.9s1.9,1.5,2.5,2.6s0.9,2.4,0.9,3.9
						c0,0.1,0,0.3,0,0.5s0,0.3,0,0.5h-11.8v-2.2h10l-1.3,0.7c0-0.8-0.1-1.5-0.5-2.1s-0.8-1.1-1.4-1.5c-0.6-0.4-1.3-0.5-2.1-0.5
						c-0.8,0-1.5,0.2-2.1,0.5s-1.1,0.8-1.4,1.5c-0.3,0.6-0.5,1.4-0.5,2.2v0.5c0,0.8,0.2,1.6,0.6,2.3c0.4,0.7,0.9,1.2,1.6,1.5
						c0.7,0.4,1.5,0.5,2.5,0.5c0.8,0,1.5-0.1,2.1-0.4s1.2-0.7,1.7-1.2l1.8,2.1c-0.7,0.7-1.5,1.3-2.4,1.7
						C198.7,192.4,197.6,192.6,196.3,192.6z"/>
					<path class="st0" d="M211.3,192.6c-1.5,0-2.8-0.3-4-0.9c-1.2-0.6-2.1-1.5-2.7-2.6c-0.7-1.1-1-2.3-1-3.8c0-1.4,0.3-2.7,1-3.8
						c0.7-1.1,1.6-1.9,2.7-2.6c1.2-0.6,2.5-0.9,4-0.9c1.4,0,2.6,0.3,3.6,0.8s1.9,1.4,2.4,2.5l-2.5,1.5c-0.4-0.7-0.9-1.1-1.6-1.5
						c-0.6-0.3-1.3-0.5-2-0.5c-0.8,0-1.5,0.2-2.2,0.5c-0.7,0.4-1.2,0.9-1.5,1.5c-0.4,0.7-0.6,1.4-0.6,2.3s0.2,1.7,0.6,2.4
						c0.4,0.7,0.9,1.2,1.5,1.5c0.7,0.4,1.4,0.5,2.2,0.5c0.7,0,1.4-0.2,2-0.5s1.1-0.8,1.6-1.5l2.5,1.5c-0.5,1.1-1.3,1.9-2.4,2.5
						S212.7,192.6,211.3,192.6z"/>
					<path class="st0" d="M218.9,192.4v-14.2h3.2v3.9l-0.4-1.1c0.4-1,1.1-1.7,2-2.2s2-0.8,3.4-0.8v3.2c-0.1,0-0.2,0-0.4,0
						c-0.1,0-0.2,0-0.3,0c-1.3,0-2.3,0.4-3,1.1s-1.1,1.8-1.1,3.3v6.8L218.9,192.4L218.9,192.4z"/>
					<path class="st0" d="M235.4,192.6c-1.6,0-2.9-0.3-4.1-0.9s-2.1-1.5-2.7-2.6s-1-2.3-1-3.8c0-1.4,0.3-2.7,0.9-3.8
						c0.6-1.1,1.5-1.9,2.6-2.6c1.1-0.6,2.4-0.9,3.8-0.9s2.6,0.3,3.7,0.9s1.9,1.5,2.5,2.6s0.9,2.4,0.9,3.9c0,0.1,0,0.3,0,0.5
						s0,0.3,0,0.5h-11.8v-2.2h10l-1.3,0.7c0-0.8-0.1-1.5-0.5-2.1s-0.8-1.1-1.4-1.5s-1.3-0.5-2.1-0.5c-0.8,0-1.5,0.2-2.1,0.5
						s-1.1,0.8-1.4,1.5c-0.3,0.6-0.5,1.4-0.5,2.2v0.5c0,0.8,0.2,1.6,0.6,2.3c0.4,0.7,0.9,1.2,1.6,1.5c0.7,0.4,1.5,0.5,2.5,0.5
						c0.8,0,1.5-0.1,2.1-0.4s1.2-0.7,1.7-1.2l1.8,2.1c-0.7,0.7-1.5,1.3-2.4,1.7C237.7,192.4,236.6,192.6,235.4,192.6z"/>
					<path class="st0" d="M248.2,192.6c-1.1,0-2-0.2-2.8-0.5c-0.8-0.4-1.4-0.9-1.8-1.5s-0.6-1.4-0.6-2.2c0-0.8,0.2-1.5,0.6-2.1
						s1-1.1,1.9-1.5s2-0.6,3.4-0.6h4.1v2.2h-3.9c-1.1,0-1.9,0.2-2.3,0.5c-0.4,0.4-0.6,0.8-0.6,1.4s0.2,1.1,0.7,1.4
						c0.5,0.4,1.1,0.5,2,0.5c0.8,0,1.5-0.2,2.2-0.6c0.6-0.4,1.1-0.9,1.4-1.6l0.5,2c-0.3,0.8-0.9,1.5-1.7,1.9
						C250.5,192.3,249.4,192.6,248.2,192.6z M252.6,192.4v-2.9l-0.2-0.6v-5c0-1-0.3-1.7-0.9-2.3s-1.5-0.8-2.7-0.8
						c-0.8,0-1.5,0.1-2.3,0.4c-0.8,0.2-1.4,0.6-2,1l-1.3-2.4c0.8-0.6,1.7-1,2.7-1.3s2.1-0.5,3.3-0.5c2.1,0,3.7,0.5,4.8,1.5
						c1.1,1,1.7,2.5,1.7,4.6v8.3L252.6,192.4L252.6,192.4z"/>
					<path class="st0" d="M276.5,178c1.1,0,2.1,0.2,3,0.7c0.9,0.4,1.6,1.1,2.1,2s0.7,2.1,0.7,3.5v8.1H279v-7.6
						c0-1.3-0.3-2.2-0.8-2.8c-0.6-0.6-1.3-0.9-2.4-0.9c-0.7,0-1.4,0.2-1.9,0.5c-0.6,0.3-1,0.8-1.3,1.4s-0.5,1.4-0.5,2.3v7.2h-3.3
						v-7.7c0-1.3-0.3-2.2-0.8-2.8c-0.6-0.6-1.3-0.9-2.4-0.9c-0.7,0-1.4,0.2-1.9,0.5c-0.6,0.3-1,0.8-1.3,1.4s-0.5,1.4-0.5,2.3v7.2
						h-3.3v-14.2h3.2v3.8l-0.6-1.1c0.5-0.9,1.2-1.6,2.1-2.1s2-0.7,3.1-0.7c1.3,0,2.5,0.3,3.4,1c1,0.7,1.6,1.7,1.9,3l-1.3-0.5
						c0.4-1,1.2-1.9,2.3-2.5C273.9,178.4,275.1,178,276.5,178z"/>
				</g>
			</g>
		</g>
		<g>
			<g>
				<path class="st0" d="M32.4,162.8h-11v-47.1h11V162.8z M42.1,162.8H54v-15.1c-1.1,2.1-2.3,4.2-3.5,6.1c-1.1,1.6-2.4,3.3-3.8,5
					S43.7,161.9,42.1,162.8z"/>
				<path class="st0" d="M84.8,159c1.5,0,2.8-0.1,4-0.4c-1.7,1.6-3.7,2.9-6,3.8c-2.3,0.9-4.7,1.4-7.4,1.4c-2.6,0-5-0.5-7.3-1.4
					s-4.3-2.1-6-3.7c-1.7-1.6-3-3.4-4-5.5s-1.5-4.4-1.5-6.8c0-2.3,0.4-4.5,1.3-6.5c0.8-2,2-3.8,3.4-5.3s3.2-2.8,5.1-3.7
					c2-0.9,4.1-1.5,6.3-1.6c-1.6,1.8-2.7,3.7-3.4,5.9c-0.7,2.2-1.1,4.6-1.1,7.4c0,2.4,0.4,4.7,1.3,6.7s2,3.7,3.6,5.2
					c1.5,1.4,3.3,2.6,5.3,3.4C80.3,158.6,82.4,159,84.8,159z M81.5,147.2c0.1-0.7,0.2-1.3,0.3-2c0.1-0.7,0.1-1.4,0.1-2.1
					c0-2.8-0.4-5.4-1.1-7.6c-0.7-2.3-1.8-4.3-3.4-6.1c2.2,0.1,4.3,0.7,6.3,1.7c2,1,3.7,2.3,5.1,3.9c1.4,1.6,2.6,3.4,3.4,5.5
					c0.8,2.1,1.3,4.3,1.3,6.7v0.1L81.5,147.2L81.5,147.2z"/>
				<path class="st0" d="M122.1,162.5c-2.5,0-4.8-0.6-7.1-1.9c-2.2-1.2-4.2-2.9-5.9-5s-3.1-4.6-4.1-7.4c-1-2.8-1.5-5.9-1.5-9.1
					c0-3.2,0.5-6.3,1.5-9.1s2.3-5.3,4-7.4c1.7-2.1,3.6-3.7,5.8-5c2.2-1.2,4.5-1.8,7-1.8h0.4c-0.8,0.9-1.6,2.1-2.3,3.6
					c-0.7,1.6-1.3,3.3-1.8,5.4c-0.5,2-0.9,4.3-1.2,6.7s-0.4,4.9-0.4,7.6s0.1,5.2,0.4,7.6c0.3,2.4,0.7,4.6,1.2,6.7
					c0.5,2,1.1,3.8,1.8,5.4C120.6,160.4,121.4,161.6,122.1,162.5L122.1,162.5z M143.1,146.6v16.2h-12.4c1.6-1.2,3.2-2.6,4.8-4.1
					c1.3-1.3,2.7-3,4.1-5C141,151.6,142.2,149.3,143.1,146.6z M144.3,126.8c-0.3,0.7-0.8,1.3-1.3,1.9c-0.5,0.5-1.2,1-1.9,1.2
					c-0.7,0.3-1.4,0.4-2.2,0.4c-0.8,0-1.5-0.1-2.2-0.5c-0.8-0.3-1.4-0.7-1.9-1.3s-0.9-1.2-1.2-1.9c-0.3-0.7-0.4-1.4-0.4-2.2
					s0.1-1.5,0.5-2.2c0.5-1.1,0.7-2,0.6-2.9c-0.1-0.8-0.2-1.5-0.5-2c-0.3-0.6-0.7-1.2-1.2-1.6c0.9,0,1.9,0.1,3,0.3
					c0.9,0.2,1.8,0.5,2.9,0.8c1,0.4,2.1,1,3.2,1.9C144.5,121.2,145.4,123.9,144.3,126.8z"/>
				<path class="st0" d="M156.8,162.7c-2.2,0-4.1-0.3-5.5-0.8s-2.6-1.2-3.4-2s-1.4-1.7-1.7-2.7c-0.3-1-0.5-1.9-0.5-2.8
					c0-0.9,0.2-1.8,0.5-2.8c0.4-1,1-1.9,1.8-2.7c0.8-0.8,2-1.5,3.4-2s3.2-0.8,5.4-0.8h5.5c-1.7,0.6-3.1,1.6-4.2,3.1
					c-1.1,1.5-1.6,3.2-1.6,5.2c0,1.9,0.5,3.6,1.6,5.2c1.1,1.5,2.5,2.6,4.2,3.1h-4.8H156.8z M150.6,141.2c0.5,0.5,1.1,0.8,1.7,1
					s1.3,0.3,2,0.3c0.7,0,1.4-0.1,2-0.4c0.7-0.3,1.2-0.7,1.7-1.2s0.8-1.1,1.1-1.7c0.3-0.6,0.4-1.3,0.3-2c0-0.7-0.2-1.4-0.5-2
					c-0.5-1-0.7-1.8-0.6-2.5c0-0.7,0.2-1.4,0.4-1.9c0.3-0.6,0.6-1.1,1.1-1.5c-0.8,0-1.7,0.1-2.6,0.3c-0.8,0.2-1.7,0.5-2.6,0.8
					c-0.9,0.4-1.9,1-2.8,1.7c-2.6,2.2-3.4,4.7-2.3,7.3C149.7,140.2,150.1,140.7,150.6,141.2z M174.2,131.9c1.3,0.9,2.5,2.1,3.5,3.4
					c1,1.3,1.8,2.8,2.4,4.5c0.6,1.7,0.9,3.4,0.9,5.3v17.7h-11.5v-18.6v-14.5l0.6,0.1C171.5,130.3,172.9,130.9,174.2,131.9z"/>
				<path class="st0" d="M186.1,134.2c1.3-0.3,2.6-0.8,3.9-1.4c1.3-0.6,2.5-1.2,3.6-1.9c1-0.6,1.9-1.2,2.5-1.8c0.6-0.5,1-0.9,1-1.1
					v34.6h-11V134.2z M213.8,130.3c1.2,1,1.8,2.2,1.9,3.6c0.1,1.4-0.3,2.7-1.2,3.9c-1,1.2-2.2,1.8-3.6,1.9c-1.5,0.1-2.8-0.3-4-1.3
					c-0.8-0.7-1.6-1.2-2.4-1.3c-0.8-0.2-1.4-0.2-2-0.1c-0.7,0.1-1.3,0.3-1.9,0.6c0.3-0.9,0.7-1.7,1.1-2.6c0.4-0.7,1-1.5,1.6-2.3
					c0.7-0.8,1.5-1.6,2.6-2.3C209,128.5,211.6,128.4,213.8,130.3z"/>
				<path class="st0" d="M220.2,133.4c1.7-0.9,3.1-1.7,4.3-2.5c1.4-0.8,2.7-1.7,3.9-2.5v34.4h-11v-19.1c0-1.6-0.1-2.9-0.4-3.9
					s-0.6-1.8-0.9-2.4c-0.4-0.7-0.9-1.2-1.3-1.4C216.7,135.2,218.5,134.3,220.2,133.4z M228.8,116c-0.3-0.7-0.7-1.4-1.3-1.9
					c-0.5-0.5-1.2-1-1.9-1.3c-0.7-0.3-1.5-0.5-2.3-0.5s-1.6,0.2-2.4,0.5c-0.7,0.3-1.4,0.7-1.9,1.3c-0.5,0.5-0.9,1.2-1.3,1.9
					c-0.3,0.7-0.5,1.5-0.5,2.3s0.2,1.6,0.5,2.3s0.7,1.3,1.3,1.9c0.5,0.5,1.2,1,1.9,1.3c0.7,0.3,1.5,0.5,2.4,0.5
					c0.8,0,1.6-0.2,2.3-0.5c0.7-0.3,1.4-0.7,1.9-1.3c0.5-0.5,1-1.2,1.3-1.9s0.5-1.5,0.5-2.3S229.1,116.8,228.8,116z"/>
				<path class="st0" d="M235.3,133.8c1.6-0.2,3.1-0.5,4.5-1c1.4-0.4,2.6-0.9,3.7-1.4c1.2-0.5,2.3-1.1,3.4-1.7v33h-11.6V133.8z
					 M257.5,129.8c1.5,0.4,2.9,1,4.2,2c1.3,0.9,2.5,2.1,3.5,3.4c1,1.3,1.8,2.8,2.4,4.5s0.9,3.4,0.9,5.3v17.7H257v-18.6v-14.4
					c0.1,0,0.2,0.1,0.3,0.1C257.3,129.8,257.4,129.8,257.5,129.8z"/>
				<path class="st0" d="M286.9,162.8c-2.1,0-4.2-0.4-6.1-1.3c-1.9-0.9-3.6-2-5-3.5s-2.5-3.2-3.4-5.2c-0.8-2-1.2-4.1-1.2-6.4
					c0-2.3,0.4-4.5,1.2-6.5c0.8-2,1.9-3.8,3.4-5.2c1.4-1.5,3.1-2.7,5-3.5c1.9-0.9,3.9-1.3,6.1-1.3h1c-0.8,0.7-1.4,1.6-2,2.7
					c-0.6,1.1-1.1,2.4-1.6,3.8c-0.4,1.4-0.8,3-1,4.7c-0.3,1.7-0.4,3.5-0.4,5.3s0.1,3.6,0.4,5.3s0.6,3.3,1,4.7s1,2.7,1.6,3.8
					s1.3,2,2,2.6L286.9,162.8L286.9,162.8z M295.9,129.8c2.1,0,4.2,0.4,6.1,1.3c1.9,0.9,3.6,2,5,3.5s2.5,3.2,3.4,5.2
					c0.8,2,1.2,4.2,1.2,6.5s-0.4,4.4-1.2,6.4c-0.8,2-1.9,3.7-3.4,5.2c-1.4,1.5-3.1,2.7-5,3.5c-1.9,0.9-3.9,1.3-6.1,1.3h-1
					c0.8-0.7,1.4-1.6,2-2.6c0.6-1.1,1.1-2.3,1.6-3.8s0.8-3,1-4.7s0.4-3.5,0.4-5.3s-0.1-3.6-0.4-5.3s-0.6-3.3-1-4.7s-1-2.7-1.6-3.8
					s-1.3-2-2-2.7L295.9,129.8L295.9,129.8z"/>
			</g>
			<g>
				<rect x="126.7" y="94.3" class="st0" width="5.1" height="5.1"/>
				<rect x="134.4" y="94.3" class="st0" width="5.1" height="5.1"/>
				<rect x="126.7" y="101.6" class="st0" width="5.1" height="5.1"/>
				<rect x="134.4" y="101.6" class="st0" width="5.1" height="5.1"/>
				<path class="st0" d="M223,79.5V41.4l-23.6-14.1l-33,19.3L133,27.3L109.3,41v39.3l-35.9,19.9v6L133,72.1l60.2,34.9v-6.7
					l-21.7-11.9l27.3-16.2l60.5,34.8v-6.6L223,79.5z M133.1,34l27.8,15.7l-27.8,15.7V34z M198.9,65.4l-32.4,19.3l-27.8-15.5
					L198.9,34V65.4z"/>
			</g>
			<polygon class="st0" points="156.2,21.5 157.6,25.9 162.2,25.9 158.5,28.6 159.9,32.9 156.2,30.2 152.5,32.9 154,28.6 
				150.3,25.9 154.8,25.9 			"/>
			<polygon class="st0" points="149.5,11.8 150.4,14.6 153.3,14.6 151,16.3 151.9,19.1 149.5,17.4 147.1,19.1 148,16.3 145.7,14.6 
				148.6,14.6 			"/>
			<polygon class="st0" points="158.5,2.9 159.5,6 162.8,6 160.1,8 161.2,11.2 158.5,9.2 155.8,11.2 156.8,8 154.1,6 157.5,6 			"/>
			<polygon class="st0" points="170.2,27.8 171.2,30.8 174.4,30.8 171.8,32.7 172.8,35.7 170.2,33.8 167.7,35.7 168.7,32.7 
				166.1,30.8 169.3,30.8 			"/>
			<polygon class="st0" points="166.4,13.2 167.3,15.9 170.1,15.9 167.8,17.5 168.7,20.2 166.4,18.6 164.1,20.2 165,17.5 
				162.7,15.9 165.5,15.9 			"/>
			<polygon class="st0" points="171.9,0 172.4,1.5 174,1.5 172.7,2.4 173.2,3.9 171.9,3 170.6,3.9 171.1,2.4 169.9,1.5 171.4,1.5 
							"/>
		</g>
	</g>
</g>
</svg>
