<svg width="80" height="80" viewBox="0 0 80 80" fill="none" xmlns="http://www.w3.org/2000/svg">
<rect width="80" height="80" fill="#29235C"/>
<path d="M16.817 56.3746C16.5688 56.2644 16.2516 56.2092 15.9069 56.2092H14.2522V60.2343H14.9968V59.0764H15.9069C16.2654 59.0764 16.5688 59.0212 16.817 58.8972C17.0652 58.7869 17.272 58.6215 17.4099 58.4009C17.5478 58.1942 17.6168 57.9323 17.6168 57.6428C17.6168 57.3395 17.5478 57.0914 17.4099 56.8709C17.272 56.6503 17.0652 56.4849 16.817 56.3746ZM16.6102 58.2217C16.4447 58.3596 16.1965 58.4285 15.8655 58.4285H14.9968V56.8295H15.8655C16.1965 56.8295 16.4447 56.8984 16.6102 57.0363C16.7756 57.1741 16.8584 57.3671 16.8584 57.629C16.8584 57.8909 16.7756 58.0839 16.6102 58.2217Z" fill="url(#paint0_linear_187_327)"/>
<path d="M18.4161 55.7958C18.2782 55.7958 18.1679 55.8371 18.0852 55.9198C18.0024 56.0025 17.9611 56.099 17.9611 56.2231C17.9611 56.3472 18.0024 56.4436 18.0852 56.5263C18.1679 56.6091 18.2782 56.6504 18.4161 56.6504C18.554 56.6504 18.6643 56.6091 18.747 56.5263C18.8298 56.4436 18.8711 56.3334 18.8711 56.2093C18.8711 56.0852 18.8298 55.9888 18.747 55.9061C18.6643 55.8233 18.554 55.7958 18.4161 55.7958Z" fill="url(#paint1_linear_187_327)"/>
<path d="M18.7753 57.1604H18.0582V60.2205H18.7753V57.1604Z" fill="url(#paint2_linear_187_327)"/>
<path d="M21.7815 57.6153V57.1604H19.2167V57.7256H20.8714L19.1753 59.7656V60.2205H21.8228V59.6416H20.0854L21.7815 57.6153Z" fill="url(#paint3_linear_187_327)"/>
<path d="M24.5387 57.6153V57.1604H21.9877V57.7256H23.6286L21.9463 59.7656V60.2205H24.5938V59.6416H22.8564L24.5387 57.6153Z" fill="url(#paint4_linear_187_327)"/>
<path d="M27.0484 57.3125C26.814 57.1746 26.552 57.1195 26.2486 57.1195C25.9452 57.1195 25.6695 57.1884 25.435 57.3263C25.2006 57.4641 25.0076 57.6433 24.8697 57.8776C24.7318 58.112 24.6628 58.3877 24.6628 58.6909C24.6628 58.9942 24.7318 59.2699 24.8697 59.5042C25.0076 59.7385 25.2006 59.9315 25.4626 60.0556C25.7108 60.1934 26.0142 60.2623 26.3589 60.2623C26.6209 60.2623 26.8691 60.221 27.076 60.1383C27.2828 60.0556 27.4621 59.9315 27.5999 59.7661L27.2138 59.325C27.1035 59.4353 26.9794 59.518 26.8415 59.5731C26.7036 59.6283 26.552 59.6558 26.3727 59.6558C26.1659 59.6558 25.9866 59.6145 25.8349 59.5318C25.6832 59.4491 25.5591 59.3388 25.4764 59.2009C25.4213 59.1182 25.3937 59.008 25.3661 58.9115H27.793C27.793 58.8839 27.793 58.8426 27.8068 58.8012C27.8068 58.7598 27.8068 58.7323 27.8068 58.7047C27.8068 58.3739 27.7378 58.0982 27.5999 57.8639C27.4758 57.6295 27.2828 57.4503 27.0484 57.3125ZM25.4764 58.1258C25.5454 57.9879 25.6557 57.8776 25.7936 57.8087C25.9315 57.7398 26.0831 57.6985 26.2624 57.6985C26.4417 57.6985 26.5933 57.7398 26.7174 57.8087C26.8415 57.8776 26.9519 57.9879 27.0208 58.1258C27.076 58.2223 27.1035 58.3187 27.1173 58.4428H25.3799C25.3937 58.3325 25.435 58.2223 25.4764 58.1258Z" fill="url(#paint5_linear_187_327)"/>
<path d="M28.8964 57.602V57.1609H28.2069V60.221H28.924V58.7461C28.924 58.429 29.0067 58.1809 29.1584 58.0293C29.3238 57.8776 29.5307 57.7949 29.8065 57.7949C29.834 57.7949 29.8478 57.7949 29.8754 57.7949C29.903 57.7949 29.9306 57.7949 29.9581 57.8087V57.1195C29.6686 57.1195 29.4341 57.1746 29.2273 57.2849C29.1032 57.3538 28.9791 57.4641 28.8964 57.602Z" fill="url(#paint6_linear_187_327)"/>
<path d="M30.6616 55.7958C30.5237 55.7958 30.4134 55.8371 30.3306 55.9198C30.2479 56.0025 30.2065 56.099 30.2065 56.2231C30.2065 56.3472 30.2479 56.4436 30.3306 56.5263C30.4134 56.6091 30.5237 56.6504 30.6616 56.6504C30.7995 56.6504 30.9098 56.6091 30.9925 56.5263C31.0753 56.4436 31.1166 56.3334 31.1166 56.2093C31.1166 56.0852 31.0753 55.9888 30.9925 55.9061C30.9098 55.8233 30.7995 55.7958 30.6616 55.7958Z" fill="url(#paint7_linear_187_327)"/>
<path d="M31.0203 57.1604H30.3032V60.2205H31.0203V57.1604Z" fill="url(#paint8_linear_187_327)"/>
<path d="M32.8538 57.1195C32.6056 57.1195 32.3711 57.1471 32.1505 57.216C31.9299 57.2849 31.7231 57.3814 31.5576 57.5055L31.8334 58.0293C31.9575 57.9328 32.0954 57.8639 32.2608 57.8087C32.4263 57.7536 32.5918 57.726 32.7572 57.726C33.0192 57.726 33.2123 57.7812 33.3364 57.9052C33.4605 58.0155 33.5294 58.1809 33.5294 58.4014V58.4428H32.7297C32.4263 58.4428 32.1643 58.4842 31.985 58.5669C31.792 58.6496 31.6679 58.7598 31.5852 58.8977C31.5024 59.0355 31.4611 59.1872 31.4611 59.3664C31.4611 59.5455 31.5024 59.6972 31.599 59.835C31.6955 59.9729 31.8196 60.0831 31.9988 60.1658C32.1643 60.2486 32.3711 60.2899 32.6056 60.2899C32.8813 60.2899 33.102 60.2348 33.2812 60.1383C33.4053 60.0694 33.5019 59.9866 33.5708 59.8764V60.2486H34.2465V58.4566C34.2465 58.0155 34.1224 57.6847 33.888 57.4641C33.6398 57.2298 33.295 57.1195 32.8538 57.1195ZM33.2261 59.6145C33.0882 59.6972 32.9227 59.7385 32.7572 59.7385C32.578 59.7385 32.4263 59.6972 32.3298 59.6283C32.2333 59.5456 32.1781 59.4491 32.1781 59.325C32.1781 59.2009 32.2195 59.1044 32.3022 59.0355C32.3849 58.9528 32.5504 58.9115 32.7986 58.9115H33.5432V59.2699C33.4605 59.4215 33.364 59.5455 33.2261 59.6145Z" fill="url(#paint9_linear_187_327)"/>
<path d="M37.5976 58.3186H36.0118V58.9251H37.5976V58.3186Z" fill="url(#paint10_linear_187_327)"/>
<path d="M40.2031 56.2092H39.4585V60.2343H40.2031V56.2092Z" fill="url(#paint11_linear_187_327)"/>
<path d="M41.8586 57.8501C41.9965 57.7674 42.162 57.726 42.3412 57.726C42.4929 57.726 42.6308 57.7674 42.7687 57.8363C42.9066 57.9052 43.0169 58.0155 43.0996 58.1533L43.6512 57.8363C43.5409 57.602 43.3616 57.4228 43.141 57.2987C42.9066 57.1746 42.6446 57.1195 42.355 57.1195C42.0379 57.1195 41.7483 57.1884 41.5001 57.3263C41.2519 57.4641 41.0588 57.6433 40.9072 57.8776C40.7693 58.112 40.7003 58.3877 40.7003 58.6909C40.7003 58.9942 40.7693 59.2699 40.9072 59.5042C41.045 59.7385 41.2519 59.9315 41.5001 60.0556C41.7483 60.1934 42.0379 60.2623 42.355 60.2623C42.6446 60.2623 42.9066 60.1934 43.141 60.0694C43.3754 59.9453 43.5409 59.7661 43.6512 59.5318L43.0996 59.2147C43.0031 59.3664 42.8928 59.4628 42.7687 59.5456C42.6308 59.6145 42.4929 59.6558 42.3412 59.6558C42.162 59.6558 42.0103 59.6145 41.8586 59.5318C41.7207 59.4491 41.6104 59.3388 41.5277 59.2009C41.4449 59.0493 41.4036 58.8839 41.4036 58.6909C41.4036 58.4979 41.4449 58.3325 41.5277 58.1809C41.6104 58.0431 41.7207 57.9328 41.8586 57.8501Z" fill="url(#paint12_linear_187_327)"/>
<path d="M46.0771 57.3125C45.8426 57.1746 45.5807 57.1195 45.2773 57.1195C44.9739 57.1195 44.6981 57.1884 44.4637 57.3263C44.2293 57.4641 44.0363 57.6433 43.8984 57.8776C43.7605 58.112 43.6915 58.3877 43.6915 58.6909C43.6915 58.9942 43.7605 59.2699 43.8984 59.5042C44.0363 59.7385 44.2293 59.9315 44.4913 60.0556C44.7395 60.1934 45.0429 60.2623 45.3876 60.2623C45.6496 60.2623 45.8978 60.221 46.1046 60.1383C46.3115 60.0556 46.4907 59.9315 46.6286 59.7661L46.2425 59.325C46.1322 59.4353 46.0081 59.518 45.8702 59.5731C45.7323 59.6283 45.5807 59.6558 45.4014 59.6558C45.1946 59.6558 45.0153 59.6145 44.8636 59.5318C44.7119 59.4491 44.5878 59.3388 44.5051 59.2009C44.4499 59.1182 44.4224 59.008 44.3948 58.9115H46.7941C46.7941 58.8839 46.7941 58.8426 46.8079 58.8012C46.8079 58.7598 46.8079 58.7323 46.8079 58.7047C46.8079 58.3739 46.7389 58.0982 46.6011 57.8639C46.4907 57.6295 46.3115 57.4503 46.0771 57.3125ZM44.5051 58.1258C44.574 57.9879 44.6844 57.8776 44.8222 57.8087C44.9601 57.7398 45.1118 57.6985 45.2911 57.6985C45.4703 57.6985 45.622 57.7398 45.7461 57.8087C45.8702 57.8776 45.9805 57.9879 46.0495 58.1258C46.1046 58.2223 46.1322 58.3187 46.146 58.4428H44.4086C44.4224 58.3325 44.4499 58.2223 44.5051 58.1258Z" fill="url(#paint13_linear_187_327)"/>
<path d="M49.4561 57.8501C49.594 57.7674 49.7595 57.726 49.9388 57.726C50.0904 57.726 50.2283 57.7674 50.3662 57.8363C50.5041 57.9052 50.6144 58.0155 50.6972 58.1533L51.2487 57.8363C51.1384 57.602 50.9592 57.4228 50.7385 57.2987C50.5041 57.1746 50.2421 57.1195 49.9526 57.1195C49.6354 57.1195 49.3458 57.1884 49.0976 57.3263C48.8494 57.4641 48.6564 57.6433 48.5047 57.8776C48.3668 58.112 48.2979 58.3877 48.2979 58.6909C48.2979 58.9942 48.3668 59.2699 48.5047 59.5042C48.6426 59.7385 48.8494 59.9315 49.0976 60.0556C49.3458 60.1934 49.6354 60.2623 49.9526 60.2623C50.2421 60.2623 50.5041 60.1934 50.7385 60.0694C50.973 59.9453 51.1384 59.7661 51.2487 59.5318L50.6972 59.2147C50.6006 59.3664 50.4903 59.4628 50.3662 59.5456C50.2283 59.6145 50.0904 59.6558 49.9388 59.6558C49.7595 59.6558 49.6078 59.6145 49.4561 59.5318C49.3182 59.4491 49.2079 59.3388 49.1252 59.2009C49.0425 59.0493 49.0011 58.8839 49.0011 58.6909C49.0011 58.4979 49.0425 58.3325 49.1252 58.1809C49.2079 58.0293 49.3045 57.9328 49.4561 57.8501Z" fill="url(#paint14_linear_187_327)"/>
<path d="M52.2683 57.602V57.1609H51.5789V60.221H52.2959V58.7461C52.2959 58.429 52.3786 58.1809 52.5303 58.0293C52.6958 57.8776 52.9026 57.7949 53.1784 57.7949C53.206 57.7949 53.2198 57.7949 53.2474 57.7949C53.2749 57.7949 53.3025 57.7949 53.3301 57.8087V57.1195C53.0405 57.1195 52.8061 57.1746 52.5993 57.2849C52.4614 57.3538 52.3511 57.4641 52.2683 57.602Z" fill="url(#paint15_linear_187_327)"/>
<path d="M55.7715 57.3125C55.5371 57.1746 55.2751 57.1195 54.9717 57.1195C54.6684 57.1195 54.3926 57.1884 54.1582 57.3263C53.9238 57.4641 53.7307 57.6433 53.5928 57.8776C53.4549 58.112 53.386 58.3877 53.386 58.6909C53.386 58.9942 53.4549 59.2699 53.5928 59.5042C53.7307 59.7385 53.9238 59.9315 54.1858 60.0556C54.434 60.1934 54.7373 60.2623 55.0821 60.2623C55.3441 60.2623 55.5923 60.221 55.7991 60.1383C56.0059 60.0556 56.1852 59.9315 56.3231 59.7661L55.937 59.325C55.8267 59.4353 55.7026 59.518 55.5647 59.5731C55.4268 59.6283 55.2751 59.6558 55.0959 59.6558C54.889 59.6558 54.7098 59.6145 54.5581 59.5318C54.4064 59.4491 54.2823 59.3388 54.1996 59.2009C54.1444 59.1182 54.1168 59.008 54.0892 58.9115H56.4886C56.4886 58.8839 56.4886 58.8426 56.5024 58.8012C56.5024 58.7598 56.5024 58.7323 56.5024 58.7047C56.5024 58.3739 56.4334 58.0982 56.2955 57.8639C56.1852 57.6295 56.0059 57.4503 55.7715 57.3125ZM54.1996 58.1258C54.2685 57.9879 54.3788 57.8776 54.5167 57.8087C54.6546 57.7398 54.8063 57.6985 54.9855 57.6985C55.1648 57.6985 55.3165 57.7398 55.4406 57.8087C55.5647 57.8776 55.675 57.9879 55.7439 58.1258C55.7991 58.2223 55.8267 58.3187 55.8405 58.4428H54.103C54.1168 58.3325 54.1444 58.2223 54.1996 58.1258Z" fill="url(#paint16_linear_187_327)"/>
<path d="M58.0181 57.1195C57.7699 57.1195 57.5355 57.1471 57.3148 57.216C57.0942 57.2849 56.8874 57.3814 56.7219 57.5055L56.9977 58.0293C57.1218 57.9328 57.2597 57.8639 57.4251 57.8087C57.5906 57.7536 57.7561 57.726 57.9216 57.726C58.1836 57.726 58.3766 57.7812 58.5007 57.9052C58.6248 58.0155 58.6937 58.1809 58.6937 58.4014V58.4428H57.894C57.5906 58.4428 57.3286 58.4842 57.1494 58.5669C56.9563 58.6496 56.8322 58.7598 56.7495 58.8977C56.6667 59.0355 56.6254 59.1872 56.6254 59.3664C56.6254 59.5455 56.6667 59.6972 56.7633 59.835C56.8598 59.9729 56.9839 60.0831 57.1631 60.1658C57.3286 60.2486 57.5355 60.2899 57.7699 60.2899C58.0457 60.2899 58.2663 60.2348 58.4455 60.1383C58.5696 60.0694 58.6662 59.9866 58.7351 59.8764V60.2486H59.4108V58.4566C59.4108 58.0155 59.2867 57.6847 59.0523 57.4641C58.8041 57.2298 58.4593 57.1195 58.0181 57.1195ZM58.3904 59.6145C58.2525 59.6972 58.087 59.7385 57.9216 59.7385C57.7423 59.7385 57.5906 59.6972 57.4941 59.6283C57.3976 59.5456 57.3424 59.4491 57.3424 59.325C57.3424 59.2009 57.3838 59.1044 57.4665 59.0355C57.5492 58.9528 57.7147 58.9115 57.9629 58.9115H58.7075V59.2699C58.6248 59.4215 58.5283 59.5455 58.3904 59.6145Z" fill="url(#paint17_linear_187_327)"/>
<path d="M65.0105 57.6985C64.9002 57.5055 64.7485 57.3538 64.5692 57.2574C64.3762 57.1609 64.1556 57.1195 63.9211 57.1195C63.6178 57.1195 63.3558 57.1884 63.1214 57.3263C62.9835 57.409 62.8594 57.5193 62.7766 57.6295C62.7077 57.5055 62.6112 57.3952 62.4871 57.3263C62.2802 57.1884 62.032 57.1195 61.7425 57.1195C61.4805 57.1195 61.2598 57.1746 61.0668 57.2849C60.9427 57.3538 60.8324 57.4503 60.7358 57.5468V57.1609H60.0464V60.221H60.7634V58.6634C60.7634 58.4566 60.791 58.2912 60.8599 58.1533C60.9289 58.0155 61.0254 57.919 61.1357 57.8501C61.2598 57.7812 61.3977 57.7536 61.5494 57.7536C61.77 57.7536 61.9493 57.8225 62.0596 57.9604C62.1837 58.0982 62.2389 58.2912 62.2389 58.5669V60.2348H62.9559V58.6771C62.9559 58.4704 62.9835 58.305 63.0524 58.1671C63.1214 58.0293 63.2179 57.9328 63.3282 57.8639C63.4523 57.7949 63.5902 57.7674 63.7419 57.7674C63.9625 57.7674 64.1418 57.8363 64.2521 57.9741C64.3762 58.112 64.4314 58.305 64.4314 58.5806V60.2486H65.1484V58.4979C65.176 58.1533 65.1208 57.9052 65.0105 57.6985Z" fill="url(#paint18_linear_187_327)"/>
<path d="M10.5015 53.8248H8.11597V43.6244H10.5015V53.8248ZM12.5975 53.8248H15.1898V50.5579C14.9554 51.0266 14.6934 51.4677 14.4314 51.8812C14.197 52.2396 13.9212 52.598 13.6041 52.9702C13.2869 53.3286 12.956 53.618 12.5975 53.8248Z" fill="white"/>
<path d="M21.8508 52.9975C22.168 52.9975 22.4575 52.9699 22.7057 52.901C22.3334 53.2456 21.906 53.5213 21.4096 53.728C20.9131 53.9348 20.3754 54.0313 19.81 54.0313C19.2447 54.0313 18.7207 53.9348 18.2242 53.7418C17.7278 53.5488 17.3004 53.2732 16.9281 52.9423C16.5558 52.5977 16.2662 52.198 16.0593 51.7431C15.8525 51.2882 15.7422 50.792 15.7422 50.2819C15.7422 49.7857 15.8387 49.317 16.018 48.876C16.1972 48.4349 16.4454 48.0627 16.7626 47.7318C17.0797 47.401 17.4521 47.1391 17.8657 46.9324C18.2932 46.7256 18.7482 46.6153 19.2309 46.5878C18.8999 46.9737 18.6517 47.401 18.5 47.8697C18.3484 48.3384 18.2656 48.8759 18.2656 49.4687C18.2656 49.9925 18.3621 50.4749 18.5414 50.916C18.7207 51.3571 18.9827 51.7293 19.3136 52.0326C19.6445 52.3496 20.0168 52.5839 20.4581 52.7631C20.8718 52.901 21.3406 52.9975 21.8508 52.9975ZM21.1476 50.4336C21.1751 50.282 21.2027 50.1441 21.2165 49.9925C21.2303 49.8409 21.2441 49.703 21.2441 49.5376C21.2441 48.9311 21.1614 48.3797 21.0097 47.8835C20.858 47.3872 20.6098 46.9461 20.2788 46.5602C20.7615 46.5877 21.2165 46.7118 21.644 46.9186C22.0714 47.1253 22.4437 47.4148 22.7471 47.7594C23.0643 48.104 23.3125 48.5038 23.4917 48.9449C23.671 49.3998 23.7675 49.8822 23.7675 50.3922V50.4198H21.1476V50.4336Z" fill="white"/>
<path d="M29.9304 53.7561C29.3926 53.7561 28.8824 53.6183 28.3998 53.3564C27.9172 53.0945 27.4897 52.7223 27.1174 52.2674C26.7451 51.8125 26.4555 51.2749 26.2349 50.6547C26.0142 50.0481 25.9039 49.3865 25.9039 48.6835C25.9039 47.9805 26.0142 47.3326 26.2211 46.7123C26.4279 46.092 26.7313 45.5682 27.0898 45.1133C27.4621 44.6585 27.8758 44.3001 28.3584 44.0382C28.841 43.7763 29.3374 43.6384 29.8752 43.6384H29.9718C29.7925 43.8314 29.627 44.0933 29.4753 44.4241C29.3237 44.755 29.1996 45.1547 29.0892 45.582C28.9789 46.0231 28.8962 46.5056 28.841 47.0294C28.7859 47.5532 28.7583 48.1046 28.7583 48.6697C28.7583 49.2349 28.7859 49.7862 28.841 50.31C28.8962 50.8338 28.9789 51.3163 29.0892 51.7574C29.1996 52.1985 29.3237 52.5845 29.4753 52.9291C29.627 53.2737 29.7925 53.5356 29.9718 53.7423H29.9304V53.7561ZM34.4946 50.31V53.8113H31.7919C32.1505 53.5631 32.4952 53.2599 32.8261 52.9153C33.1157 52.6258 33.4191 52.2674 33.7224 51.8263C34.0258 51.3852 34.2878 50.889 34.4946 50.31ZM34.7428 46.0231C34.6739 46.1747 34.5774 46.3126 34.4532 46.4366C34.3291 46.5607 34.205 46.6434 34.0534 46.6985C33.9017 46.7537 33.75 46.795 33.5707 46.795C33.3915 46.795 33.2398 46.7675 33.0881 46.6985C32.9226 46.6296 32.7848 46.5469 32.6744 46.4229C32.5641 46.2988 32.4814 46.161 32.4124 46.0093C32.3573 45.8577 32.3159 45.7061 32.3159 45.5407C32.3159 45.3753 32.3435 45.2236 32.4124 45.0582C32.509 44.8239 32.5503 44.6171 32.5365 44.4379C32.5228 44.2587 32.4952 44.1071 32.44 43.9968C32.3711 43.859 32.2883 43.7487 32.178 43.6384C32.3711 43.6384 32.5917 43.6522 32.8123 43.6936C33.0054 43.7349 33.2122 43.7901 33.4328 43.8728C33.6535 43.9555 33.8879 44.0933 34.1223 44.2725C34.798 44.8101 34.991 45.389 34.7428 46.0231Z" fill="white"/>
<path d="M37.4595 53.797C36.9769 53.797 36.577 53.7418 36.2736 53.6316C35.9565 53.5213 35.7083 53.3696 35.529 53.1905C35.3498 53.0113 35.2256 52.8183 35.1567 52.6115C35.0878 52.4047 35.0602 52.198 35.0602 52.005C35.0602 51.812 35.1015 51.619 35.1705 51.4123C35.2532 51.2055 35.3773 51.0125 35.5566 50.8333C35.7358 50.6541 35.9841 50.5025 36.3012 50.3922C36.6184 50.2682 37.0045 50.213 37.4595 50.213H38.6592C38.2869 50.3371 37.9835 50.5714 37.7491 50.8885C37.5147 51.2193 37.3906 51.5915 37.3906 52.005C37.3906 52.4185 37.5147 52.7907 37.7491 53.1215C37.9835 53.4524 38.2869 53.6729 38.6592 53.797H37.6112H37.4595ZM36.1082 49.1379C36.2185 49.2343 36.3426 49.3171 36.4805 49.3584C36.6184 49.4135 36.7563 49.4273 36.9079 49.4273C37.0596 49.4273 37.1975 49.3998 37.3354 49.3308C37.4871 49.2619 37.5974 49.1792 37.7077 49.0689C37.8042 48.9587 37.887 48.8346 37.9421 48.6968C37.9973 48.5589 38.0249 48.4211 38.0111 48.2694C38.0111 48.1178 37.9697 47.98 37.9145 47.8421C37.818 47.6354 37.7629 47.4562 37.7767 47.2908C37.7904 47.1253 37.818 47.0013 37.8594 46.891C37.9145 46.7669 37.9973 46.6567 38.0938 46.5602C37.9146 46.5602 37.7215 46.574 37.5285 46.6153C37.3492 46.6567 37.1699 46.7118 36.9631 46.7945C36.7563 46.8772 36.5632 47.0013 36.3564 47.1667C35.791 47.6491 35.6255 48.1729 35.86 48.7519C35.9013 48.9173 35.9978 49.0414 36.1082 49.1379ZM41.224 47.1253C41.5135 47.3321 41.7617 47.5802 41.9824 47.8697C42.203 48.1592 42.3685 48.49 42.5064 48.8484C42.6305 49.2068 42.6994 49.5927 42.6994 49.9925V53.8245H40.2036V49.7995V46.6705L40.3277 46.698C40.6448 46.7669 40.9482 46.9186 41.224 47.1253Z" fill="white"/>
<path d="M43.8164 47.6353C44.0922 47.5664 44.3818 47.4561 44.6713 47.332C44.9609 47.1942 45.2091 47.0701 45.4435 46.9185C45.6642 46.7807 45.8572 46.6566 45.9951 46.5326C46.133 46.4223 46.2019 46.3396 46.2019 46.2982V53.7831H43.8164V47.6353ZM49.8009 46.7807C50.0491 46.9874 50.2008 47.2493 50.2284 47.5664C50.256 47.8834 50.1732 48.1591 49.9664 48.4072C49.7596 48.6553 49.4976 48.807 49.1804 48.8345C48.8633 48.8621 48.5737 48.7656 48.3255 48.5588C48.1462 48.4072 47.967 48.3107 47.8015 48.2694C47.636 48.228 47.4981 48.228 47.3602 48.2418C47.2086 48.2556 47.0707 48.3107 46.9466 48.3797C47.0155 48.1867 47.0982 48.0075 47.1948 47.8283C47.2913 47.6767 47.4016 47.5112 47.5533 47.3183C47.705 47.1391 47.8842 46.9737 48.1049 46.8082C48.7529 46.3809 49.3183 46.3809 49.8009 46.7807Z" fill="white"/>
<path d="M51.1939 47.4423C51.5525 47.2493 51.8696 47.0701 52.1316 46.9047C52.435 46.7255 52.7245 46.5463 52.9727 46.3671V53.8244H50.5872V49.6891C50.5872 49.3445 50.5596 49.0688 50.5045 48.8483C50.4493 48.6277 50.3804 48.4623 50.3114 48.3245C50.2149 48.1728 50.1322 48.0764 50.0219 48.0074C50.4355 47.8282 50.8216 47.6353 51.1939 47.4423ZM53.0693 43.6929C53.0003 43.5275 52.9038 43.3897 52.7935 43.2794C52.6832 43.1691 52.5315 43.0726 52.3798 43.0037C52.2143 42.9348 52.0489 42.9072 51.8834 42.9072C51.7041 42.9072 51.5249 42.9348 51.3732 43.0037C51.2077 43.0726 51.0836 43.1691 50.9595 43.2794C50.8492 43.4035 50.7527 43.5413 50.6837 43.6929C50.6148 43.8583 50.5872 44.0238 50.5872 44.1892C50.5872 44.3684 50.6148 44.5338 50.6837 44.6992C50.7527 44.8508 50.8492 44.9887 50.9595 45.1127C51.0698 45.2368 51.2077 45.3195 51.3732 45.3884C51.5387 45.4573 51.7041 45.4849 51.8834 45.4849C52.0627 45.4849 52.2281 45.4573 52.3798 45.3884C52.5453 45.3195 52.6832 45.223 52.7935 45.1127C52.9038 45.0024 53.0003 44.8646 53.0693 44.6992C53.1382 44.5476 53.1658 44.3822 53.1658 44.1892C53.1658 44.01 53.1244 43.8446 53.0693 43.6929Z" fill="white"/>
<path d="M54.4752 47.539C54.82 47.4977 55.1509 47.4288 55.4543 47.3323C55.7576 47.2358 56.0334 47.1393 56.2678 47.0428C56.5298 46.9325 56.778 46.8085 56.9986 46.6706V53.8109H54.4752V47.539ZM59.2601 46.6706C59.5772 46.7533 59.8806 46.8912 60.1702 47.0979C60.4597 47.3047 60.7079 47.5528 60.9286 47.8423C61.1492 48.1318 61.3147 48.4626 61.4526 48.821C61.5767 49.1794 61.6456 49.5653 61.6456 49.9651V53.8109H59.1498V49.7859V46.6431C59.1636 46.6569 59.1911 46.6569 59.2049 46.6569C59.2325 46.6569 59.2463 46.6706 59.2601 46.6706Z" fill="white"/>
<path d="M65.6448 53.8108C65.176 53.8108 64.7485 53.7143 64.3349 53.5351C63.9212 53.3559 63.5627 53.094 63.2455 52.777C62.9421 52.4599 62.6939 52.074 62.5147 51.6467C62.3354 51.2193 62.2527 50.7507 62.2527 50.2682C62.2527 49.772 62.3354 49.3033 62.5147 48.8622C62.6939 48.4211 62.9284 48.049 63.2455 47.7319C63.5489 47.4149 63.9212 47.153 64.3349 46.9738C64.7485 46.7946 65.1898 46.6981 65.6448 46.6981H65.8655C65.7 46.8497 65.5483 47.0427 65.4242 47.277C65.2863 47.5114 65.176 47.7871 65.0795 48.1041C64.983 48.4073 64.914 48.752 64.8588 49.1241C64.8037 49.4963 64.7761 49.8823 64.7761 50.282C64.7761 50.6818 64.8037 51.0677 64.8588 51.4261C64.914 51.7845 64.983 52.1291 65.0795 52.4462C65.176 52.7494 65.2863 53.0251 65.4242 53.2594C65.5621 53.4938 65.7 53.6867 65.8655 53.8246H65.6448V53.8108ZM67.5891 46.6705C68.0579 46.6705 68.4854 46.767 68.8991 46.9462C69.3128 47.1392 69.6713 47.3873 69.9884 47.7043C70.2918 48.0214 70.54 48.4073 70.7193 48.8347C70.8985 49.262 70.9813 49.7444 70.9813 50.2407C70.9813 50.7369 70.8985 51.1918 70.7193 51.6191C70.54 52.0464 70.3056 52.4324 69.9884 52.7494C69.6851 53.0665 69.3128 53.3284 68.8991 53.5075C68.4854 53.7005 68.0442 53.7832 67.5891 53.7832H67.3685C67.534 53.6316 67.6856 53.4524 67.8097 53.2181C67.9338 52.9837 68.0579 52.7081 68.1545 52.4048C68.251 52.1015 68.3199 51.7569 68.3751 51.3848C68.4303 51.0126 68.4578 50.6404 68.4578 50.2407C68.4578 49.8409 68.4303 49.455 68.3751 49.0828C68.3199 48.7106 68.251 48.366 68.1545 48.0627C68.0579 47.7595 67.9476 47.4838 67.8097 47.2357C67.6719 47.0013 67.534 46.8084 67.3685 46.6567H67.5891V46.6705Z" fill="white"/>
<path d="M32.0399 38.9927H30.9368V40.0954H32.0399V38.9927Z" fill="url(#paint19_linear_187_327)"/>
<path d="M33.7087 38.9927H32.6056V40.0954H33.7087V38.9927Z" fill="url(#paint20_linear_187_327)"/>
<path d="M32.0399 40.5647H30.9368V41.6674H32.0399V40.5647Z" fill="url(#paint21_linear_187_327)"/>
<path d="M33.7087 40.5647H32.6056V41.6674H33.7087V40.5647Z" fill="url(#paint22_linear_187_327)"/>
<path d="M51.8005 35.7679V27.5111L46.6985 24.4647L39.5557 28.6414L32.3164 24.4647L27.1868 27.4284V35.9471L19.4097 40.2616V41.5711L32.3164 34.1827L45.361 41.7503V40.3029L40.6589 37.7253L46.5744 34.224L59.688 41.7641V40.3443L51.8005 35.7679ZM32.3164 25.9121L38.3423 29.3168L32.3164 32.7215V25.9121ZM46.5744 32.7353L39.5419 36.912L33.5298 33.5486L46.5744 25.9259V32.7353Z" fill="url(#paint23_linear_187_327)"/>
<path d="M37.3357 23.2235L37.6391 24.1608H38.6181L37.8321 24.7398L38.1355 25.6771L37.3357 25.0982L36.536 25.6771L36.8393 24.7398L36.0396 24.1608H37.0324L37.3357 23.2235Z" fill="url(#paint24_linear_187_327)"/>
<path d="M35.8734 21.1281L36.0664 21.7208H36.7007L36.1905 22.093L36.3836 22.6995L35.8734 22.3273L35.3632 22.6995L35.5562 22.093L35.046 21.7208H35.6803L35.8734 21.1281Z" fill="url(#paint25_linear_187_327)"/>
<path d="M37.8177 19.1849L38.0383 19.8604H38.7691L38.1762 20.2877L38.3968 20.9769L37.8177 20.5496L37.2385 20.9769L37.4592 20.2877L36.88 19.8604H37.597L37.8177 19.1849Z" fill="url(#paint26_linear_187_327)"/>
<path d="M40.3691 24.5881L40.5759 25.236H41.2654L40.7138 25.6357L40.9206 26.2836L40.3691 25.8839L39.8175 26.2836L40.0243 25.6357L39.4728 25.236H40.1622L40.3691 24.5881Z" fill="url(#paint27_linear_187_327)"/>
<path d="M39.5422 21.4034L39.7353 21.9962H40.342L39.8456 22.3546L40.0386 22.9335L39.5422 22.5751L39.0458 22.9335L39.2251 22.3546L38.7286 21.9962H39.3492L39.5422 21.4034Z" fill="url(#paint28_linear_187_327)"/>
<path d="M40.7278 18.5508L40.8381 18.8816H41.1828L40.907 19.0746L41.0035 19.4054L40.7278 19.1986L40.452 19.4054L40.5623 19.0746L40.2865 18.8816H40.6312L40.7278 18.5508Z" fill="url(#paint29_linear_187_327)"/>
<defs>
<linearGradient id="paint0_linear_187_327" x1="13.9946" y1="58.2121" x2="65.423" y2="58.2121" gradientUnits="userSpaceOnUse">
<stop offset="1.1e-06" stop-color="#A2662A"/>
<stop offset="0.3991" stop-color="#F0E58E"/>
<stop offset="0.5288" stop-color="#F8EF97"/>
<stop offset="0.655" stop-color="#F0E58E"/>
<stop offset="1" stop-color="#A37F44"/>
</linearGradient>
<linearGradient id="paint1_linear_187_327" x1="13.9942" y1="56.2199" x2="65.4223" y2="56.2199" gradientUnits="userSpaceOnUse">
<stop offset="1.1e-06" stop-color="#A2662A"/>
<stop offset="0.3991" stop-color="#F0E58E"/>
<stop offset="0.5288" stop-color="#F8EF97"/>
<stop offset="0.655" stop-color="#F0E58E"/>
<stop offset="1" stop-color="#A37F44"/>
</linearGradient>
<linearGradient id="paint2_linear_187_327" x1="13.9948" y1="58.6886" x2="65.4232" y2="58.6886" gradientUnits="userSpaceOnUse">
<stop offset="1.1e-06" stop-color="#A2662A"/>
<stop offset="0.3991" stop-color="#F0E58E"/>
<stop offset="0.5288" stop-color="#F8EF97"/>
<stop offset="0.655" stop-color="#F0E58E"/>
<stop offset="1" stop-color="#A37F44"/>
</linearGradient>
<linearGradient id="paint3_linear_187_327" x1="13.995" y1="58.6886" x2="65.4233" y2="58.6886" gradientUnits="userSpaceOnUse">
<stop offset="1.1e-06" stop-color="#A2662A"/>
<stop offset="0.3991" stop-color="#F0E58E"/>
<stop offset="0.5288" stop-color="#F8EF97"/>
<stop offset="0.655" stop-color="#F0E58E"/>
<stop offset="1" stop-color="#A37F44"/>
</linearGradient>
<linearGradient id="paint4_linear_187_327" x1="13.9943" y1="58.6886" x2="65.4226" y2="58.6886" gradientUnits="userSpaceOnUse">
<stop offset="1.1e-06" stop-color="#A2662A"/>
<stop offset="0.3991" stop-color="#F0E58E"/>
<stop offset="0.5288" stop-color="#F8EF97"/>
<stop offset="0.655" stop-color="#F0E58E"/>
<stop offset="1" stop-color="#A37F44"/>
</linearGradient>
<linearGradient id="paint5_linear_187_327" x1="13.9944" y1="58.6891" x2="65.4227" y2="58.6891" gradientUnits="userSpaceOnUse">
<stop offset="1.1e-06" stop-color="#A2662A"/>
<stop offset="0.3991" stop-color="#F0E58E"/>
<stop offset="0.5288" stop-color="#F8EF97"/>
<stop offset="0.655" stop-color="#F0E58E"/>
<stop offset="1" stop-color="#A37F44"/>
</linearGradient>
<linearGradient id="paint6_linear_187_327" x1="13.9946" y1="58.669" x2="65.423" y2="58.669" gradientUnits="userSpaceOnUse">
<stop offset="1.1e-06" stop-color="#A2662A"/>
<stop offset="0.3991" stop-color="#F0E58E"/>
<stop offset="0.5288" stop-color="#F8EF97"/>
<stop offset="0.655" stop-color="#F0E58E"/>
<stop offset="1" stop-color="#A37F44"/>
</linearGradient>
<linearGradient id="paint7_linear_187_327" x1="13.9948" y1="56.2199" x2="65.4232" y2="56.2199" gradientUnits="userSpaceOnUse">
<stop offset="1.1e-06" stop-color="#A2662A"/>
<stop offset="0.3991" stop-color="#F0E58E"/>
<stop offset="0.5288" stop-color="#F8EF97"/>
<stop offset="0.655" stop-color="#F0E58E"/>
<stop offset="1" stop-color="#A37F44"/>
</linearGradient>
<linearGradient id="paint8_linear_187_327" x1="13.9951" y1="58.6886" x2="65.4232" y2="58.6886" gradientUnits="userSpaceOnUse">
<stop offset="1.1e-06" stop-color="#A2662A"/>
<stop offset="0.3991" stop-color="#F0E58E"/>
<stop offset="0.5288" stop-color="#F8EF97"/>
<stop offset="0.655" stop-color="#F0E58E"/>
<stop offset="1" stop-color="#A37F44"/>
</linearGradient>
<linearGradient id="paint9_linear_187_327" x1="13.9945" y1="58.6891" x2="65.4228" y2="58.6891" gradientUnits="userSpaceOnUse">
<stop offset="1.1e-06" stop-color="#A2662A"/>
<stop offset="0.3991" stop-color="#F0E58E"/>
<stop offset="0.5288" stop-color="#F8EF97"/>
<stop offset="0.655" stop-color="#F0E58E"/>
<stop offset="1" stop-color="#A37F44"/>
</linearGradient>
<linearGradient id="paint10_linear_187_327" x1="13.9949" y1="58.6258" x2="65.4231" y2="58.6258" gradientUnits="userSpaceOnUse">
<stop offset="1.1e-06" stop-color="#A2662A"/>
<stop offset="0.3991" stop-color="#F0E58E"/>
<stop offset="0.5288" stop-color="#F8EF97"/>
<stop offset="0.655" stop-color="#F0E58E"/>
<stop offset="1" stop-color="#A37F44"/>
</linearGradient>
<linearGradient id="paint11_linear_187_327" x1="13.9942" y1="58.2121" x2="65.4225" y2="58.2121" gradientUnits="userSpaceOnUse">
<stop offset="1.1e-06" stop-color="#A2662A"/>
<stop offset="0.3991" stop-color="#F0E58E"/>
<stop offset="0.5288" stop-color="#F8EF97"/>
<stop offset="0.655" stop-color="#F0E58E"/>
<stop offset="1" stop-color="#A37F44"/>
</linearGradient>
<linearGradient id="paint12_linear_187_327" x1="13.995" y1="58.6891" x2="65.4233" y2="58.6891" gradientUnits="userSpaceOnUse">
<stop offset="1.1e-06" stop-color="#A2662A"/>
<stop offset="0.3991" stop-color="#F0E58E"/>
<stop offset="0.5288" stop-color="#F8EF97"/>
<stop offset="0.655" stop-color="#F0E58E"/>
<stop offset="1" stop-color="#A37F44"/>
</linearGradient>
<linearGradient id="paint13_linear_187_327" x1="13.994" y1="58.6891" x2="65.4223" y2="58.6891" gradientUnits="userSpaceOnUse">
<stop offset="1.1e-06" stop-color="#A2662A"/>
<stop offset="0.3991" stop-color="#F0E58E"/>
<stop offset="0.5288" stop-color="#F8EF97"/>
<stop offset="0.655" stop-color="#F0E58E"/>
<stop offset="1" stop-color="#A37F44"/>
</linearGradient>
<linearGradient id="paint14_linear_187_327" x1="13.9948" y1="58.6891" x2="65.4229" y2="58.6891" gradientUnits="userSpaceOnUse">
<stop offset="1.1e-06" stop-color="#A2662A"/>
<stop offset="0.3991" stop-color="#F0E58E"/>
<stop offset="0.5288" stop-color="#F8EF97"/>
<stop offset="0.655" stop-color="#F0E58E"/>
<stop offset="1" stop-color="#A37F44"/>
</linearGradient>
<linearGradient id="paint15_linear_187_327" x1="13.9938" y1="58.669" x2="65.4222" y2="58.669" gradientUnits="userSpaceOnUse">
<stop offset="1.1e-06" stop-color="#A2662A"/>
<stop offset="0.3991" stop-color="#F0E58E"/>
<stop offset="0.5288" stop-color="#F8EF97"/>
<stop offset="0.655" stop-color="#F0E58E"/>
<stop offset="1" stop-color="#A37F44"/>
</linearGradient>
<linearGradient id="paint16_linear_187_327" x1="13.9945" y1="58.6891" x2="65.4229" y2="58.6891" gradientUnits="userSpaceOnUse">
<stop offset="1.1e-06" stop-color="#A2662A"/>
<stop offset="0.3991" stop-color="#F0E58E"/>
<stop offset="0.5288" stop-color="#F8EF97"/>
<stop offset="0.655" stop-color="#F0E58E"/>
<stop offset="1" stop-color="#A37F44"/>
</linearGradient>
<linearGradient id="paint17_linear_187_327" x1="13.9935" y1="58.6891" x2="65.4218" y2="58.6891" gradientUnits="userSpaceOnUse">
<stop offset="1.1e-06" stop-color="#A2662A"/>
<stop offset="0.3991" stop-color="#F0E58E"/>
<stop offset="0.5288" stop-color="#F8EF97"/>
<stop offset="0.655" stop-color="#F0E58E"/>
<stop offset="1" stop-color="#A37F44"/>
</linearGradient>
<linearGradient id="paint18_linear_187_327" x1="13.9949" y1="58.669" x2="65.4231" y2="58.669" gradientUnits="userSpaceOnUse">
<stop offset="1.1e-06" stop-color="#A2662A"/>
<stop offset="0.3991" stop-color="#F0E58E"/>
<stop offset="0.5288" stop-color="#F8EF97"/>
<stop offset="0.655" stop-color="#F0E58E"/>
<stop offset="1" stop-color="#A37F44"/>
</linearGradient>
<linearGradient id="paint19_linear_187_327" x1="30.9393" y1="39.5411" x2="32.0412" y2="39.5411" gradientUnits="userSpaceOnUse">
<stop offset="1.1e-06" stop-color="#A2662A"/>
<stop offset="0.3991" stop-color="#F0E58E"/>
<stop offset="0.5288" stop-color="#F8EF97"/>
<stop offset="0.655" stop-color="#F0E58E"/>
<stop offset="1" stop-color="#A37F44"/>
</linearGradient>
<linearGradient id="paint20_linear_187_327" x1="32.6119" y1="39.5411" x2="33.7138" y2="39.5411" gradientUnits="userSpaceOnUse">
<stop offset="1.1e-06" stop-color="#A2662A"/>
<stop offset="0.3991" stop-color="#F0E58E"/>
<stop offset="0.5288" stop-color="#F8EF97"/>
<stop offset="0.655" stop-color="#F0E58E"/>
<stop offset="1" stop-color="#A37F44"/>
</linearGradient>
<linearGradient id="paint21_linear_187_327" x1="30.9393" y1="41.1167" x2="32.0412" y2="41.1167" gradientUnits="userSpaceOnUse">
<stop offset="1.1e-06" stop-color="#A2662A"/>
<stop offset="0.3991" stop-color="#F0E58E"/>
<stop offset="0.5288" stop-color="#F8EF97"/>
<stop offset="0.655" stop-color="#F0E58E"/>
<stop offset="1" stop-color="#A37F44"/>
</linearGradient>
<linearGradient id="paint22_linear_187_327" x1="32.6119" y1="41.1167" x2="33.7138" y2="41.1167" gradientUnits="userSpaceOnUse">
<stop offset="1.1e-06" stop-color="#A2662A"/>
<stop offset="0.3991" stop-color="#F0E58E"/>
<stop offset="0.5288" stop-color="#F8EF97"/>
<stop offset="0.655" stop-color="#F0E58E"/>
<stop offset="1" stop-color="#A37F44"/>
</linearGradient>
<linearGradient id="paint23_linear_187_327" x1="19.4085" y1="33.1065" x2="59.6867" y2="33.1065" gradientUnits="userSpaceOnUse">
<stop offset="1.1e-06" stop-color="#A2662A"/>
<stop offset="0.3991" stop-color="#F0E58E"/>
<stop offset="0.5288" stop-color="#F8EF97"/>
<stop offset="0.655" stop-color="#F0E58E"/>
<stop offset="1" stop-color="#A37F44"/>
</linearGradient>
<linearGradient id="paint24_linear_187_327" x1="360.692" y1="19.3803" x2="309.295" y2="20.1879" gradientUnits="userSpaceOnUse">
<stop offset="1.1e-06" stop-color="#A2662A"/>
<stop offset="0.3991" stop-color="#F0E58E"/>
<stop offset="0.5288" stop-color="#F8EF97"/>
<stop offset="0.655" stop-color="#F0E58E"/>
</linearGradient>
<linearGradient id="paint25_linear_187_327" x1="243.024" y1="18.6607" x2="210.098" y2="19.178" gradientUnits="userSpaceOnUse">
<stop offset="1.1e-06" stop-color="#A2662A"/>
<stop offset="0.3991" stop-color="#F0E58E"/>
<stop offset="0.5288" stop-color="#F8EF97"/>
<stop offset="0.655" stop-color="#F0E58E"/>
</linearGradient>
<linearGradient id="paint26_linear_187_327" x1="274.361" y1="16.3691" x2="236.763" y2="16.9599" gradientUnits="userSpaceOnUse">
<stop offset="1.1e-06" stop-color="#A2662A"/>
<stop offset="0.3991" stop-color="#F0E58E"/>
<stop offset="0.5288" stop-color="#F8EF97"/>
<stop offset="0.655" stop-color="#F0E58E"/>
</linearGradient>
<linearGradient id="paint27_linear_187_327" x1="263.925" y1="21.9284" x2="228.391" y2="22.4867" gradientUnits="userSpaceOnUse">
<stop offset="1.1e-06" stop-color="#A2662A"/>
<stop offset="0.3991" stop-color="#F0E58E"/>
<stop offset="0.5288" stop-color="#F8EF97"/>
<stop offset="0.655" stop-color="#F0E58E"/>
</linearGradient>
<linearGradient id="paint28_linear_187_327" x1="241.584" y1="19.0037" x2="209.47" y2="19.5083" gradientUnits="userSpaceOnUse">
<stop offset="1.1e-06" stop-color="#A2662A"/>
<stop offset="0.3991" stop-color="#F0E58E"/>
<stop offset="0.5288" stop-color="#F8EF97"/>
<stop offset="0.655" stop-color="#F0E58E"/>
</linearGradient>
<linearGradient id="paint29_linear_187_327" x1="152.315" y1="17.2299" x2="134.579" y2="17.5086" gradientUnits="userSpaceOnUse">
<stop offset="1.1e-06" stop-color="#A2662A"/>
<stop offset="0.3991" stop-color="#F0E58E"/>
<stop offset="0.5288" stop-color="#F8EF97"/>
<stop offset="0.655" stop-color="#F0E58E"/>
</linearGradient>
</defs>
</svg>
